<svg version="1.1" xmlns="http://www.w3.org/2000/svg" xmlns:xlink="http://www.w3.org/1999/xlink" width="149.79602" height="149.79602" viewBox="0,0,149.79602,149.79602"><defs><linearGradient x1="240" y1="175.16667" x2="240" y2="190.79167" gradientUnits="userSpaceOnUse" id="color-1"><stop offset="0" stop-color="#000000"/><stop offset="1" stop-color="#000000" stop-opacity="0"/></linearGradient></defs><g transform="translate(-165.10199,-105.10199)"><g data-paper-data="{&quot;isPaintingLayer&quot;:true}" fill-rule="nonzero" stroke-linejoin="miter" stroke-miterlimit="10" stroke-dasharray="" stroke-dashoffset="0" style="mix-blend-mode: normal"><path d="M271.96803,182.97917c0,4.31473 -14.31258,7.8125 -31.96803,7.8125c-17.65546,0 -31.96803,-3.49777 -31.96803,-7.8125c0,-4.31473 14.31258,-7.8125 31.96803,-7.8125c17.65546,0 31.96803,3.49777 31.96803,7.8125z" fill="url(#color-1)" stroke="none" stroke-width="0" stroke-linecap="butt"/><path d="M208.9375,181.83333c0,0 0,-6.67136 0,-8.84823c0,-1.27319 1.21455,-3.02677 2.69657,-3.02677c5.86584,0 44.0844,0 55.9322,0c2.20469,0 3.49623,1.35749 3.49623,2.43355c0,2.11951 0,9.44145 0,9.44145z" fill="#a37e6c" stroke="#724848" stroke-width="1.5" stroke-linecap="butt"/><path d="M211.34261,172.45207h16.37931" fill="none" stroke="#915c5c" stroke-width="1" stroke-linecap="round"/><path d="M217.37709,177.53827h7.32759" fill="none" stroke="#915c5c" stroke-width="1" stroke-linecap="round"/><path d="M267.89433,174.17621h-22.67241" fill="none" stroke="#915c5c" stroke-width="1" stroke-linecap="round"/><path d="M246.85985,178.48655h-11.37931" fill="none" stroke="#915c5c" stroke-width="1" stroke-linecap="round"/><path d="M165.10199,254.89801v-149.79602h149.79602v149.79602z" fill="none" stroke="none" stroke-width="0" stroke-linecap="butt"/></g></g></svg>